<svg xmlns="http://www.w3.org/2000/svg" xmlns:xlink="http://www.w3.org/1999/xlink" width="180" height="160" version="1.1" viewBox="0 0 180 160"><title>bundled</title><desc>Created with Sketch.</desc><g id="bundled" fill="none" fill-rule="evenodd" stroke="none" stroke-width="1"><g id="griddable-hexagon-grayscale" fill="#4e5255" stroke="#D7DADF" opacity=".35" transform="translate(2.000000, 38.000000)"><polygon id="hexagon" points="6 0 0 10 6 20 18.045 20 24 10 18.045 0"/></g><g id="griddable-hexagon-grayscale" fill="#4e5255" stroke="#D7DADF" transform="translate(2.000000, 58.000000)"><polygon id="hexagon" points="6 0 0 10 6 20 18.045 20 24 10 18.045 0"/></g><g id="griddable-hexagon-grayscale" fill="#4e5255" stroke="#D7DADF" transform="translate(20.000000, 28.000000)"><polygon id="hexagon" points="6 0 0 10 6 20 18.045 20 24 10 18.045 0"/></g><g id="griddable-hexagon-grayscale" fill="#4e5255" stroke="#D7DADF" transform="translate(38.000000, 38.000000)"><polygon id="hexagon" points="6 0 0 10 6 20 18.045 20 24 10 18.045 0"/></g><g id="griddable-hexagon-grayscale" fill="#4e5255" stroke="#D7DADF" transform="translate(38.000000, 18.000000)"><polygon id="hexagon" points="6 0 0 10 6 20 18.045 20 24 10 18.045 0"/></g><g id="griddable-hexagon-grayscale" fill="#4e5255" stroke="#D7DADF" transform="translate(38.000000, 58.000000)"><polygon id="hexagon" points="6 0 0 10 6 20 18.045 20 24 10 18.045 0"/></g><g id="griddable-hexagon-grayscale" fill="#4e5255" stroke="#D7DADF" transform="translate(20.000000, 68.000000)"><polygon id="hexagon" points="6 0 0 10 6 20 18.045 20 24 10 18.045 0"/></g><g id="griddable-hexagon-grayscale" fill="#4e5255" stroke="#D7DADF" opacity=".3" transform="translate(2.000000, 78.000000)"><polygon id="hexagon" points="6 0 0 10 6 20 18.045 20 24 10 18.045 0"/></g><g id="griddable-hexagon" fill="#825a2d" stroke="#FFC88C" transform="translate(2.000000, 118.000000)"><polygon id="hexagon" points="6 0 0 10 6 20 18.045 20 24 10 18.045 0"/></g><g id="griddable-hexagon" fill="#825a2d" stroke="#FFC88C" transform="translate(2.000000, 98.000000)"><polygon id="hexagon" points="6 0 0 10 6 20 18.045 20 24 10 18.045 0"/></g><g id="griddable-hexagon" fill="#825a2d" stroke="#FFC88C" opacity=".3" transform="translate(20.000000, 108.000000)"><polygon id="hexagon" points="6 0 0 10 6 20 18.045 20 24 10 18.045 0"/></g><g id="griddable-hexagon" fill="#825a2d" stroke="#FFC88C" opacity=".3" transform="translate(20.000000, 128.000000)"><polygon id="hexagon" points="6 0 0 10 6 20 18.045 20 24 10 18.045 0"/></g><g id="griddable-hexagon" fill="#825a2d" stroke="#FFC88C" transform="translate(38.000000, 138.000000)"><polygon id="hexagon" points="6 0 0 10 6 20 18.045 20 24 10 18.045 0"/></g><g id="griddable-hexagon" fill="#825a2d" stroke="#FFC88C" transform="translate(38.000000, 118.000000)"><polygon id="hexagon" points="6 0 0 10 6 20 18.045 20 24 10 18.045 0"/></g><g id="griddable-hexagon" fill="#825a2d" stroke="#FFC88C" transform="translate(38.000000, 78.000000)"><polygon id="hexagon" points="6 0 0 10 6 20 18.045 20 24 10 18.045 0"/></g><g id="griddable-hexagon" fill="#825a2d" stroke="#FFC88C" opacity=".3" transform="translate(20.000000, 88.000000)"><polygon id="hexagon" points="6 0 0 10 6 20 18.045 20 24 10 18.045 0"/></g><g id="griddable-hexagon-grayscale" fill="#4e5255" stroke="#D7DADF" transform="translate(56.000000, 8.000000)"><polygon id="hexagon" points="6 0 0 10 6 20 18.045 20 24 10 18.045 0"/></g><g id="griddable-hexagon-grayscale" fill="#4e5255" stroke="#D7DADF" transform="translate(56.000000, 48.000000)"><polygon id="hexagon" points="6 0 0 10 6 20 18.045 20 24 10 18.045 0"/></g><g id="griddable-hexagon-grayscale" fill="#4e5255" stroke="#D7DADF" transform="translate(74.000000, 38.000000)"><polygon id="hexagon" points="6 0 0 10 6 20 18.045 20 24 10 18.045 0"/></g><g id="griddable-hexagon-grayscale" fill="#4e5255" stroke="#D7DADF" opacity=".35" transform="translate(74.000000, 18.000000)"><polygon id="hexagon" points="6 0 0 10 6 20 18.045 20 24 10 18.045 0"/></g><g id="griddable-hexagon" fill="#825a2d" stroke="#FFC88C" transform="translate(74.000000, 58.000000)"><polygon id="hexagon" points="6 0 0 10 6 20 18.045 20 24 10 18.045 0"/></g><g id="griddable-hexagon" fill="#825a2d" stroke="#FFC88C" opacity=".35" transform="translate(56.000000, 108.000000)"><polygon id="hexagon" points="6 0 0 10 6 20 18.045 20 24 10 18.045 0"/></g><g id="griddable-hexagon" fill="#825a2d" stroke="#FFC88C" transform="translate(56.000000, 128.000000)"><polygon id="hexagon" points="6 0 0 10 6 20 18.045 20 24 10 18.045 0"/></g><g id="griddable-hexagon" fill="#825a2d" stroke="#FFC88C" opacity=".3" transform="translate(74.000000, 118.000000)"><polygon id="hexagon" points="6 0 0 10 6 20 18.045 20 24 10 18.045 0"/></g><g id="griddable-hexagon" fill="#825a2d" stroke="#FFC88C" opacity=".35" transform="translate(74.000000, 78.000000)"><polygon id="hexagon" points="6 0 0 10 6 20 18.045 20 24 10 18.045 0"/></g><g id="griddable-hexagon" fill="#825a2d" stroke="#FFC88C" transform="translate(56.000000, 88.000000)"><polygon id="hexagon" points="6 0 0 10 6 20 18.045 20 24 10 18.045 0"/></g><g id="griddable-hexagon" fill="#825a2d" stroke="#FFC88C" transform="translate(74.000000, 98.000000)"><polygon id="hexagon" points="6 0 0 10 6 20 18.045 20 24 10 18.045 0"/></g><g id="griddable-hexagon-grayscale" fill="#4e5255" stroke="#D7DADF" transform="translate(92.000000, 28.000000)"><polygon id="hexagon" points="6 0 0 10 6 20 18.045 20 24 10 18.045 0"/></g><g id="griddable-hexagon" fill="#825a2d" stroke="#FFC88C" transform="translate(110.000000, 38.000000)"><polygon id="hexagon" points="6 0 0 10 6 20 18.045 20 24 10 18.045 0"/></g><g id="griddable-hexagon-logo-grayscale" transform="translate(110.000000, 18.000000)"><polygon id="hexagon" fill="#D7DADF" points="6 0 0 10 6 20 12.045 20 6 10 12.045 0"/><polygon id="hexagon" fill="#fff" points="6 0 12 10 6 20 12 20 18 10 12 0"/><polygon id="hexagon" fill="#D7DADF" points="12 0 18 10 12 20 18.045 20 24 10 18.045 0"/></g><g id="griddable-hexagon" fill="#825a2d" stroke="#FFC88C" opacity=".35" transform="translate(128.000000, 28.000000)"><polygon id="hexagon" points="6 0 0 10 6 20 18.045 20 24 10 18.045 0"/></g><g id="griddable-hexagon" fill="#825a2d" stroke="#FFC88C" transform="translate(128.000000, 48.000000)"><polygon id="hexagon" points="6 0 0 10 6 20 18.045 20 24 10 18.045 0"/></g><g id="griddable-hexagon" fill="#825a2d" stroke="#FFC88C" opacity=".35" transform="translate(110.000000, 58.000000)"><polygon id="hexagon" points="6 0 0 10 6 20 18.045 20 24 10 18.045 0"/></g><g id="griddable-hexagon" fill="#825a2d" stroke="#FFC88C" transform="translate(92.000000, 68.000000)"><polygon id="hexagon" points="6 0 0 10 6 20 18.045 20 24 10 18.045 0"/></g><g id="griddable-hexagon" fill="#825a2d" stroke="#FFC88C" opacity=".3" transform="translate(92.000000, 108.000000)"><polygon id="hexagon" points="6 0 0 10 6 20 18.045 20 24 10 18.045 0"/></g><g id="griddable-hexagon" fill="#825a2d" stroke="#FFC88C" opacity=".35" transform="translate(128.000000, 108.000000)"><polygon id="hexagon" points="6 0 0 10 6 20 18.045 20 24 10 18.045 0"/></g><g id="griddable-hexagon" fill="#825a2d" stroke="#FFC88C" opacity=".35" transform="translate(146.000000, 98.000000)"><polygon id="hexagon" points="6 0 0 10 6 20 18.045 20 24 10 18.045 0"/></g><g id="griddable-hexagon" fill="#825a2d" stroke="#FFC88C" opacity=".3" transform="translate(128.000000, 68.000000)"><polygon id="hexagon" points="6 0 0 10 6 20 18.045 20 24 10 18.045 0"/></g><g id="griddable-hexagon" fill="#825a2d" stroke="#FFC88C" transform="translate(110.000000, 78.000000)"><polygon id="hexagon" points="6 0 0 10 6 20 18.045 20 24 10 18.045 0"/></g><g id="griddable-hexagon" fill="#825a2d" stroke="#FFC88C" transform="translate(146.000000, 18.000000)"><polygon id="hexagon" points="6 0 0 10 6 20 18.045 20 24 10 18.045 0"/></g><g id="griddable-hexagon" fill="#825a2d" stroke="#FFC88C" transform="translate(146.000000, 78.000000)"><polygon id="hexagon" points="6 0 0 10 6 20 18.045 20 24 10 18.045 0"/></g><g id="griddable-hexagon" fill="#825a2d" stroke="#FFC88C" transform="translate(146.000000, 58.000000)"><polygon id="hexagon" points="6 0 0 10 6 20 18.045 20 24 10 18.045 0"/></g><g id="griddable-hexagon-logo" transform="translate(92.000000, 128.000000)"><polygon id="hexagon" fill="#F7A245" points="6 0 0 10 6 20 12.045 20 6 10 12.045 0"/><polygon id="hexagon" fill="#F2D0A6" points="6 0 12 10 6 20 12 20 18 10 12 0"/><polygon id="hexagon" fill="#F7A245" points="12 0 18 10 12 20 18.045 20 24 10 18.045 0"/></g><g id="griddable-hexagon-logo-grayscale" transform="translate(20.000000, 48.000000)"><polygon id="hexagon" fill="#D7DADF" points="6 0 0 10 6 20 12.045 20 6 10 12.045 0"/><polygon id="hexagon" fill="#fff" points="6 0 12 10 6 20 12 20 18 10 12 0"/><polygon id="hexagon" fill="#D7DADF" points="12 0 18 10 12 20 18.045 20 24 10 18.045 0"/></g><g id="griddable-hexagon-logo" transform="translate(38.000000, 98.000000)"><polygon id="hexagon" fill="#F7A245" points="6 0 0 10 6 20 12.045 20 6 10 12.045 0"/><polygon id="hexagon" fill="#F2D0A6" points="6 0 12 10 6 20 12 20 18 10 12 0"/><polygon id="hexagon" fill="#F7A245" points="12 0 18 10 12 20 18.045 20 24 10 18.045 0"/></g><g id="griddable-hexagon-logo-grayscale" transform="translate(56.000000, 28.000000)"><polygon id="hexagon" fill="#D7DADF" points="6 0 0 10 6 20 12.045 20 6 10 12.045 0"/><polygon id="hexagon" fill="#fff" points="6 0 12 10 6 20 12 20 18 10 12 0"/><polygon id="hexagon" fill="#D7DADF" points="12 0 18 10 12 20 18.045 20 24 10 18.045 0"/></g><g id="griddable-hexagon-logo" transform="translate(56.000000, 68.000000)"><polygon id="hexagon" fill="#F7A245" points="6 0 0 10 6 20 12.045 20 6 10 12.045 0"/><polygon id="hexagon" fill="#F2D0A6" points="6 0 12 10 6 20 12 20 18 10 12 0"/><polygon id="hexagon" fill="#F7A245" points="12 0 18 10 12 20 18.045 20 24 10 18.045 0"/></g><g id="griddable-hexagon-logo" transform="translate(92.000000, 48.000000)"><polygon id="hexagon" fill="#F7A245" points="6 0 0 10 6 20 12.045 20 6 10 12.045 0"/><polygon id="hexagon" fill="#F2D0A6" points="6 0 12 10 6 20 12 20 18 10 12 0"/><polygon id="hexagon" fill="#F7A245" points="12 0 18 10 12 20 18.045 20 24 10 18.045 0"/></g><g id="griddable-hexagon-grayscale" fill="#4e5255" stroke="#D7DADF" transform="translate(128.000000, 8.000000)"><polygon id="hexagon" points="6 0 0 10 6 20 18.045 20 24 10 18.045 0"/></g><g id="griddable-hexagon-logo" transform="translate(92.000000, 88.000000)"><polygon id="hexagon" fill="#F7A245" points="6 0 0 10 6 20 12.045 20 6 10 12.045 0"/><polygon id="hexagon" fill="#F2D0A6" points="6 0 12 10 6 20 12 20 18 10 12 0"/><polygon id="hexagon" fill="#F7A245" points="12 0 18 10 12 20 18.045 20 24 10 18.045 0"/></g><g id="griddable-hexagon" fill="#825a2d" stroke="#FFC88C" transform="translate(110.000000, 118.000000)"><polygon id="hexagon" points="6 0 0 10 6 20 18.045 20 24 10 18.045 0"/></g><g id="griddable-hexagon-logo" transform="translate(128.000000, 88.000000)"><polygon id="hexagon" fill="#F7A245" points="6 0 0 10 6 20 12.045 20 6 10 12.045 0"/><polygon id="hexagon" fill="#F2D0A6" points="6 0 12 10 6 20 12 20 18 10 12 0"/><polygon id="hexagon" fill="#F7A245" points="12 0 18 10 12 20 18.045 20 24 10 18.045 0"/></g><g id="griddable-hexagon-logo" transform="translate(146.000000, 38.000000)"><polygon id="hexagon" fill="#F7A245" points="6 0 0 10 6 20 12.045 20 6 10 12.045 0"/><polygon id="hexagon" fill="#F2D0A6" points="6 0 12 10 6 20 12 20 18 10 12 0"/><polygon id="hexagon" fill="#F7A245" points="12 0 18 10 12 20 18.045 20 24 10 18.045 0"/></g></g></svg>